<?xml version="1.0" encoding="UTF-8"?>
<svg width="100px" height="99px" viewBox="0 0 100 99" version="1.1" xmlns="http://www.w3.org/2000/svg" xmlns:xlink="http://www.w3.org/1999/xlink">
    <!-- Generator: sketchtool 54 (76480) - https://sketchapp.com -->
    <title>A6EB5B19-9168-45E4-B27C-5FD2398A1E0C</title>
    <desc>Created with sketchtool.</desc>
    <g id="Page-1" stroke="none" stroke-width="1" fill="none" fill-rule="evenodd">
        <g id="ICRIME-FIGHTER-How-to-3" transform="translate(-594.000000, -2539.000000)">
            <g id="Group-3" transform="translate(594.000000, 2539.000000)">
                <ellipse id="Oval-Copy-2" fill="#3E95E7" cx="50" cy="49.5" rx="50" ry="49.5"></ellipse>
                <g id="cloud" transform="translate(22.000000, 30.000000)" fill="#3085D5" fill-rule="nonzero">
                    <path d="M55.7870742,21.9576964 C55.7957969,21.4960572 55.8007812,20.5233581 55.8007812,20.288553 C55.8007812,9.10091952 46.6720117,0 35.5921992,0 C30.0747227,0 25.5644297,1.01414866 21.4907227,5.9616819 C21.4852852,5.96817263 21.4844922,5.97671307 21.4792812,5.9832038 C20.9922852,5.91226122 20.5050625,5.83824409 20.0039062,5.83824409 C14.3818711,5.83824409 9.80859375,10.4353916 9.80859375,16.0867709 C9.80859375,16.126854 9.80859375,16.1685313 9.80859375,16.2085006 C4.05220703,17.0392006 -0.5,22.0300054 -0.5,28.0433854 C-0.5,34.6355795 4.94984766,40 11.5078125,40 L13.2070312,40 L43.7929688,40 L45.4921875,40 C52.0501523,40 57.5,34.6355795 57.5,28.0433854 C57.5,25.8126228 56.8498789,23.7470891 55.7870742,21.9576964 Z" id="Path"></path>
                </g>
                <g id="cloud" transform="translate(20.000000, 27.000000)" fill="#FFFFFF" fill-rule="nonzero">
                    <path d="M55.7870742,21.9576964 C55.7957969,21.4960572 55.8007812,20.5233581 55.8007812,20.288553 C55.8007812,9.10091952 46.6720117,0 35.5921992,0 C30.0747227,0 25.5644297,1.01414866 21.4907227,5.9616819 C21.4852852,5.96817263 21.4844922,5.97671307 21.4792812,5.9832038 C20.9922852,5.91226122 20.5050625,5.83824409 20.0039062,5.83824409 C14.3818711,5.83824409 9.80859375,10.4353916 9.80859375,16.0867709 C9.80859375,16.126854 9.80859375,16.1685313 9.80859375,16.2085006 C4.05220703,17.0392006 -0.5,22.0300054 -0.5,28.0433854 C-0.5,34.6355795 4.94984766,40 11.5078125,40 L13.2070312,40 L43.7929688,40 L45.4921875,40 C52.0501523,40 57.5,34.6355795 57.5,28.0433854 C57.5,25.8126228 56.8498789,23.7470891 55.7870742,21.9576964 Z" id="Path"></path>
                </g>
            </g>
        </g>
    </g>
</svg>