<?xml version="1.0" encoding="UTF-8"?>
<svg width="100px" height="99px" viewBox="0 0 100 99" version="1.1" xmlns="http://www.w3.org/2000/svg" xmlns:xlink="http://www.w3.org/1999/xlink">
    <!-- Generator: sketchtool 54 (76480) - https://sketchapp.com -->
    <title>B8E8E52B-AE2C-417B-9F68-5D245E517B3D</title>
    <desc>Created with sketchtool.</desc>
    <g id="Page-1" stroke="none" stroke-width="1" fill="none" fill-rule="evenodd">
        <g id="ICRIME-FIGHTER-How-to-3" transform="translate(-594.000000, -2812.000000)">
            <g id="Group-10" transform="translate(594.000000, 2812.000000)">
                <g id="Group-3-Copy-2" fill="#3E95E7">
                    <ellipse id="Oval-Copy-2" cx="50" cy="49.5" rx="50" ry="49.5"></ellipse>
                </g>
                <g id="Group-4" transform="translate(21.000000, 25.000000)" fill-rule="nonzero">
                    <g id="002-desktop-monitor" transform="translate(1.000000, 2.000000)" fill="#3085D5">
                        <path d="M56.4945355,1.47535519 C55.5495264,0.530346084 54.4139308,0.0573661202 53.0862696,0.0573661202 L4.82604372,0.0573661202 C3.49891075,0.0573661202 2.36310383,0.530346084 1.41746084,1.47535519 C0.472346084,2.42068124 0,3.55638251 0,4.88362113 L0,37.7009508 C0,39.0285064 0.472346084,40.164102 1.41746084,41.1096393 C2.36310383,42.0546485 3.49891075,42.5267832 4.82604372,42.5267832 L21.234867,42.5267832 C21.234867,43.290714 21.0738616,44.0756685 20.7520619,44.8794281 C20.4304736,45.6838215 20.108674,46.3873224 19.7868743,46.9903534 C19.4654973,47.5941239 19.3045974,48.0359381 19.3045974,48.317275 C19.3045974,48.8400146 19.4955009,49.2934499 19.8776248,49.6745173 C20.2595373,50.0570638 20.7120219,50.2487067 21.234867,50.2487067 L36.6781858,50.2487067 C37.201031,50.2487067 37.6536211,50.0571694 38.0355337,49.6745173 C38.4179745,49.2935556 38.608878,48.8401202 38.608878,48.317275 C38.608878,48.0565392 38.4476612,47.6188452 38.1259672,47.0056721 C37.8041676,46.392816 37.4823679,45.6781166 37.1609909,44.8645319 C36.8391913,44.0499964 36.6782914,43.2708525 36.6782914,42.5267832 L53.0871148,42.5267832 C54.4140364,42.5267832 55.5496321,42.0546485 56.4946412,41.1096393 C57.4400729,40.1642077 57.9126302,39.028612 57.9126302,37.7009508 L57.9126302,4.88362113 C57.9129472,3.55638251 57.4399672,2.42068124 56.4945355,1.47535519 Z M54.0516685,29.979133 C54.0516685,30.2406084 53.9562696,30.4664809 53.7652605,30.6578069 C53.5740401,30.8483934 53.347745,30.9437923 53.0862696,30.9437923 L4.82604372,30.9437923 C4.5647796,30.9437923 4.33848452,30.8483934 4.14747541,30.6578069 C3.95657195,30.465847 3.86096175,30.2406084 3.86096175,29.979133 L3.86096175,4.88362113 C3.86096175,4.62214572 3.95625501,4.39606193 4.14747541,4.20505282 C4.33859016,4.01436066 4.56488525,3.91853916 4.82604372,3.91853916 L53.0870091,3.91853916 C53.3480619,3.91853916 53.5747796,4.01404372 53.7652605,4.20505282 C53.9562696,4.39616758 54.0516685,4.62225137 54.0516685,4.88362113 L54.0516685,29.979133 L54.0516685,29.979133 Z" id="Shape"></path>
                    </g>
                    <g id="002-desktop-monitor" transform="translate(0.000000, -0.000000)" fill="#FFFFFF">
                        <path d="M56.4945355,1.47535519 C55.5495264,0.530346084 54.4139308,0.0573661202 53.0862696,0.0573661202 L4.82604372,0.0573661202 C3.49891075,0.0573661202 2.36310383,0.530346084 1.41746084,1.47535519 C0.472346084,2.42068124 0,3.55638251 0,4.88362113 L0,37.7009508 C0,39.0285064 0.472346084,40.164102 1.41746084,41.1096393 C2.36310383,42.0546485 3.49891075,42.5267832 4.82604372,42.5267832 L21.234867,42.5267832 C21.234867,43.290714 21.0738616,44.0756685 20.7520619,44.8794281 C20.4304736,45.6838215 20.108674,46.3873224 19.7868743,46.9903534 C19.4654973,47.5941239 19.3045974,48.0359381 19.3045974,48.317275 C19.3045974,48.8400146 19.4955009,49.2934499 19.8776248,49.6745173 C20.2595373,50.0570638 20.7120219,50.2487067 21.234867,50.2487067 L36.6781858,50.2487067 C37.201031,50.2487067 37.6536211,50.0571694 38.0355337,49.6745173 C38.4179745,49.2935556 38.608878,48.8401202 38.608878,48.317275 C38.608878,48.0565392 38.4476612,47.6188452 38.1259672,47.0056721 C37.8041676,46.392816 37.4823679,45.6781166 37.1609909,44.8645319 C36.8391913,44.0499964 36.6782914,43.2708525 36.6782914,42.5267832 L53.0871148,42.5267832 C54.4140364,42.5267832 55.5496321,42.0546485 56.4946412,41.1096393 C57.4400729,40.1642077 57.9126302,39.028612 57.9126302,37.7009508 L57.9126302,4.88362113 C57.9129472,3.55638251 57.4399672,2.42068124 56.4945355,1.47535519 Z M54.0516685,29.979133 C54.0516685,30.2406084 53.9562696,30.4664809 53.7652605,30.6578069 C53.5740401,30.8483934 53.347745,30.9437923 53.0862696,30.9437923 L4.82604372,30.9437923 C4.5647796,30.9437923 4.33848452,30.8483934 4.14747541,30.6578069 C3.95657195,30.465847 3.86096175,30.2406084 3.86096175,29.979133 L3.86096175,4.88362113 C3.86096175,4.62214572 3.95625501,4.39606193 4.14747541,4.20505282 C4.33859016,4.01436066 4.56488525,3.91853916 4.82604372,3.91853916 L53.0870091,3.91853916 C53.3480619,3.91853916 53.5747796,4.01404372 53.7652605,4.20505282 C53.9562696,4.39616758 54.0516685,4.62225137 54.0516685,4.88362113 L54.0516685,29.979133 L54.0516685,29.979133 Z" id="Shape"></path>
                    </g>
                </g>
            </g>
        </g>
    </g>
</svg>