<?xml version="1.0" encoding="UTF-8"?>
<svg width="100px" height="99px" viewBox="0 0 100 99" version="1.1" xmlns="http://www.w3.org/2000/svg" xmlns:xlink="http://www.w3.org/1999/xlink">
    <!-- Generator: sketchtool 54 (76480) - https://sketchapp.com -->
    <title>84799929-4833-4E92-9165-421CDE0530FA</title>
    <desc>Created with sketchtool.</desc>
    <g id="Page-1" stroke="none" stroke-width="1" fill="none" fill-rule="evenodd">
        <g id="ICRIME-FIGHTER-How-to-3" transform="translate(-189.000000, -2691.000000)">
            <g id="Group-8" transform="translate(189.000000, 2691.000000)">
                <g id="Group-3-Copy-3" fill="#3E95E7">
                    <ellipse id="Oval-Copy-2" cx="50" cy="49.5" rx="50" ry="49.5"></ellipse>
                </g>
                <g id="Group" transform="translate(32.000000, 20.000000)" fill-rule="nonzero">
                    <g id="001-cell-phone" transform="translate(2.000000, 2.000000)" fill="#3085D5">
                        <path d="M30.0232857,0 L6.10657143,0 C3.81764286,0 1.96992857,1.856 1.96992857,4.14078571 L1.96992857,52.7075 C1.96992857,54.9902143 3.81764286,56.8441429 6.10657143,56.8441429 L30.0232857,56.8441429 C32.3080714,56.8441429 34.1599286,54.9902143 34.1599286,52.7075 L34.1599286,4.14078571 C34.1599286,1.856 32.3080714,0 30.0232857,0 Z M12.1634286,2.51471429 L23.9705714,2.51471429 C24.2688571,2.51471429 24.5112143,2.96007143 24.5112143,3.51107143 C24.5112143,4.06207143 24.2688571,4.5095 23.9705714,4.5095 L12.1634286,4.5095 C11.8630714,4.5095 11.6248571,4.06207143 11.6248571,3.51107143 C11.6248571,2.96007143 11.8630714,2.51471429 12.1634286,2.51471429 Z M18.067,52.7572143 C16.6107857,52.7572143 15.4259286,51.5723571 15.4259286,50.1140714 C15.4259286,48.6557857 16.6107857,47.4750714 18.067,47.4750714 C19.5190714,47.4750714 20.7039286,48.6557857 20.7039286,50.1140714 C20.7039286,51.5723571 19.5190714,52.7572143 18.067,52.7572143 Z M31.0610714,43.7071429 L5.07085714,43.7071429 L5.07085714,6.98692857 L31.0610714,6.98692857 L31.0610714,43.7071429 Z" id="Shape"></path>
                    </g>
                    <g id="001-cell-phone" transform="translate(-0.000000, 0.000000)" fill="#FFFFFF">
                        <path d="M30.0232857,0 L6.10657143,0 C3.81764286,0 1.96992857,1.856 1.96992857,4.14078571 L1.96992857,52.7075 C1.96992857,54.9902143 3.81764286,56.8441429 6.10657143,56.8441429 L30.0232857,56.8441429 C32.3080714,56.8441429 34.1599286,54.9902143 34.1599286,52.7075 L34.1599286,4.14078571 C34.1599286,1.856 32.3080714,0 30.0232857,0 Z M12.1634286,2.51471429 L23.9705714,2.51471429 C24.2688571,2.51471429 24.5112143,2.96007143 24.5112143,3.51107143 C24.5112143,4.06207143 24.2688571,4.5095 23.9705714,4.5095 L12.1634286,4.5095 C11.8630714,4.5095 11.6248571,4.06207143 11.6248571,3.51107143 C11.6248571,2.96007143 11.8630714,2.51471429 12.1634286,2.51471429 Z M18.067,52.7572143 C16.6107857,52.7572143 15.4259286,51.5723571 15.4259286,50.1140714 C15.4259286,48.6557857 16.6107857,47.4750714 18.067,47.4750714 C19.5190714,47.4750714 20.7039286,48.6557857 20.7039286,50.1140714 C20.7039286,51.5723571 19.5190714,52.7572143 18.067,52.7572143 Z M31.0610714,43.7071429 L5.07085714,43.7071429 L5.07085714,6.98692857 L31.0610714,6.98692857 L31.0610714,43.7071429 Z" id="Shape"></path>
                    </g>
                </g>
            </g>
        </g>
    </g>
</svg>