<?xml version="1.0" encoding="UTF-8"?>
<svg width="73px" height="73px" viewBox="0 0 73 73" version="1.1" xmlns="http://www.w3.org/2000/svg" xmlns:xlink="http://www.w3.org/1999/xlink">
    <!-- Generator: sketchtool 54 (76480) - https://sketchapp.com -->
    <title>990DDC3B-4D5A-4726-A867-A3D9632DE94C</title>
    <desc>Created with sketchtool.</desc>
    <g id="Page-1" stroke="none" stroke-width="1" fill="none" fill-rule="evenodd">
        <g id="ICRIME-FIGHTER-How-to-3" transform="translate(-192.000000, -651.000000)">
            <g id="Group-5" transform="translate(192.000000, 651.000000)">
                <circle id="Oval-Copy-2" fill="#3E95E7" cx="36.5" cy="36.5" r="36.5"></circle>
                <g id="cloud" transform="translate(17.000000, 18.000000)" fill="#3085D5" fill-rule="nonzero">
                    <path d="M27.7988281,25.003618 L27.7988281,20.9470422 C27.7988281,17.4348763 24.9730059,14.5771913 21.5,14.5771913 C18.0269941,14.5771913 15.2011719,17.4348763 15.2011719,20.9470422 L15.2011719,25.003618 C13.7379961,25.5312965 12.6816406,26.9321541 12.6816406,28.5908632 L12.6816406,36.2346842 C12.6816406,38.3421706 14.3769492,40.0565948 16.4609375,40.0565948 L26.5390625,40.0565948 C28.6230508,40.0565948 30.3183594,38.3421706 30.3183594,36.2346842 L30.3183594,28.5908632 C30.3183594,26.9321541 29.2620039,25.5312965 27.7988281,25.003618 Z M22.7597656,33.6867439 C22.7597656,34.3909097 22.1963145,34.9607141 21.5,34.9607141 C20.8036855,34.9607141 20.2402344,34.3909097 20.2402344,33.6867439 L20.2402344,31.1388036 C20.2402344,30.4346378 20.8036855,29.8648334 21.5,29.8648334 C22.1963145,29.8648334 22.7597656,30.4346378 22.7597656,31.1388036 L22.7597656,33.6867439 Z M25.2792969,24.7689527 L17.7207031,24.7689527 L17.7207031,20.9470422 C17.7207031,18.8394709 19.4160117,17.1251317 21.5,17.1251317 C23.5839883,17.1251317 25.2792969,18.8395558 25.2792969,20.9470422 L25.2792969,24.7689527 Z" id="Shape"></path>
                    <path d="M41.7300723,16.4080563 C41.7365391,16.0637447 41.7402344,15.3382611 41.7402344,15.1631327 C41.7402344,6.81888287 34.9723535,0.0309999408 26.7580098,0.0309999408 C22.6674668,0.0309999408 19.3236289,0.787398497 16.3034668,4.47749556 C16.2994355,4.48233665 16.2988477,4.4887065 16.2949844,4.49354759 C15.9339355,4.44063536 15.5727187,4.38542998 15.2011719,4.38542998 C11.0331113,4.38542998 7.64257812,7.8141933 7.64257812,12.029251 C7.64257812,12.0591468 7.64257812,12.0902317 7.64257812,12.1200426 C3.37491211,12.7396168 -2.84217094e-14,16.4619877 -2.84217094e-14,20.9470422 C-2.84217094e-14,25.8638027 4.0404043,29.8648334 8.90234375,29.8648334 L10.1621094,29.8648334 L10.1621094,28.5908632 C10.1621094,26.5181987 11.1611875,24.6914953 12.6816406,23.5275112 L12.6816406,20.9470422 C12.6816406,16.0302817 16.6380605,12.029251 21.5,12.029251 C26.3619395,12.029251 30.3183594,16.0302817 30.3183594,20.9470422 L30.3183594,23.5275112 C31.8388125,24.6914953 32.8378906,26.5181987 32.8378906,28.5908632 L32.8378906,29.8648334 L34.0976562,29.8648334 C38.9595957,29.8648334 43,25.8638027 43,20.9470422 C43,19.2832372 42.5180137,17.7426675 41.7300723,16.4080563 Z" id="Path"></path>
                </g>
                <g id="cloud" transform="translate(15.000000, 16.000000)" fill="#FFFFFF" fill-rule="nonzero">
                    <path d="M27.7988281,25.003618 L27.7988281,20.9470422 C27.7988281,17.4348763 24.9730059,14.5771913 21.5,14.5771913 C18.0269941,14.5771913 15.2011719,17.4348763 15.2011719,20.9470422 L15.2011719,25.003618 C13.7379961,25.5312965 12.6816406,26.9321541 12.6816406,28.5908632 L12.6816406,36.2346842 C12.6816406,38.3421706 14.3769492,40.0565948 16.4609375,40.0565948 L26.5390625,40.0565948 C28.6230508,40.0565948 30.3183594,38.3421706 30.3183594,36.2346842 L30.3183594,28.5908632 C30.3183594,26.9321541 29.2620039,25.5312965 27.7988281,25.003618 Z M22.7597656,33.6867439 C22.7597656,34.3909097 22.1963145,34.9607141 21.5,34.9607141 C20.8036855,34.9607141 20.2402344,34.3909097 20.2402344,33.6867439 L20.2402344,31.1388036 C20.2402344,30.4346378 20.8036855,29.8648334 21.5,29.8648334 C22.1963145,29.8648334 22.7597656,30.4346378 22.7597656,31.1388036 L22.7597656,33.6867439 Z M25.2792969,24.7689527 L17.7207031,24.7689527 L17.7207031,20.9470422 C17.7207031,18.8394709 19.4160117,17.1251317 21.5,17.1251317 C23.5839883,17.1251317 25.2792969,18.8395558 25.2792969,20.9470422 L25.2792969,24.7689527 Z" id="Shape"></path>
                    <path d="M41.7300723,16.4080563 C41.7365391,16.0637447 41.7402344,15.3382611 41.7402344,15.1631327 C41.7402344,6.81888287 34.9723535,0.0309999408 26.7580098,0.0309999408 C22.6674668,0.0309999408 19.3236289,0.787398497 16.3034668,4.47749556 C16.2994355,4.48233665 16.2988477,4.4887065 16.2949844,4.49354759 C15.9339355,4.44063536 15.5727187,4.38542998 15.2011719,4.38542998 C11.0331113,4.38542998 7.64257812,7.8141933 7.64257812,12.029251 C7.64257812,12.0591468 7.64257812,12.0902317 7.64257812,12.1200426 C3.37491211,12.7396168 -2.84217094e-14,16.4619877 -2.84217094e-14,20.9470422 C-2.84217094e-14,25.8638027 4.0404043,29.8648334 8.90234375,29.8648334 L10.1621094,29.8648334 L10.1621094,28.5908632 C10.1621094,26.5181987 11.1611875,24.6914953 12.6816406,23.5275112 L12.6816406,20.9470422 C12.6816406,16.0302817 16.6380605,12.029251 21.5,12.029251 C26.3619395,12.029251 30.3183594,16.0302817 30.3183594,20.9470422 L30.3183594,23.5275112 C31.8388125,24.6914953 32.8378906,26.5181987 32.8378906,28.5908632 L32.8378906,29.8648334 L34.0976562,29.8648334 C38.9595957,29.8648334 43,25.8638027 43,20.9470422 C43,19.2832372 42.5180137,17.7426675 41.7300723,16.4080563 Z" id="Path"></path>
                </g>
            </g>
        </g>
    </g>
</svg>