<?xml version="1.0" encoding="UTF-8"?>
<svg width="73px" height="73px" viewBox="0 0 73 73" version="1.1" xmlns="http://www.w3.org/2000/svg" xmlns:xlink="http://www.w3.org/1999/xlink">
    <!-- Generator: sketchtool 54 (76480) - https://sketchapp.com -->
    <title>3B18E967-A582-4E9C-8C48-B8B85A9CD049</title>
    <desc>Created with sketchtool.</desc>
    <g id="Page-1" stroke="none" stroke-width="1" fill="none" fill-rule="evenodd">
        <g id="ICRIME-FIGHTER-How-to-3" transform="translate(-456.000000, -651.000000)">
            <g id="Group-6" transform="translate(456.000000, 651.000000)">
                <circle id="Oval" fill="#3E95E7" cx="36.5" cy="36.5" r="36.5"></circle>
                <g id="008-network" transform="translate(14.000000, 18.000000)" fill="#3085D5" fill-rule="nonzero">
                    <path d="M24,9.48527382 C18.6928302,9.48527382 15.3962264,12.1774045 15.3962264,16.5386562 C15.3962264,17.0342326 15.8017358,17.4360331 16.3018868,17.4360331 L31.6981132,17.4360331 C32.1982642,17.4360331 32.6037736,17.0342326 32.6037736,16.5386562 C32.6037736,12.1863783 29.3071698,9.48527382 24,9.48527382 Z" id="Shape"></path>
                    <path d="M24,0.0628163829 C21.6241132,0.0628163829 19.6981132,1.97120053 19.6981132,4.32535665 C19.7030943,6.67749367 21.6261509,8.58296134 24,8.58789692 C26.3758868,8.58789692 28.3018868,6.67951277 28.3018868,4.32535665 C28.3018868,1.97120053 26.3758868,0.0628163829 24,0.0628163829 Z" id="Shape"></path>
                    <path d="M8.60377358,30.1249425 C3.29660377,30.1249425 0,32.8170732 0,37.1783249 C0,37.6739013 0.405509434,38.0757018 0.905660377,38.0757018 L16.3018868,38.0757018 C16.8020377,38.0757018 17.2075472,37.6739013 17.2075472,37.1783249 C17.2075472,32.8260469 13.9109434,30.1249425 8.60377358,30.1249425 Z" id="Shape"></path>
                    <path d="M8.60377358,20.702485 C6.22788679,20.702485 4.30188679,22.6108692 4.30188679,24.9650253 C4.30686792,27.3171623 6.22992453,29.22263 8.60377358,29.2275656 C10.9796604,29.2275656 12.9056604,27.3191814 12.9056604,24.9650253 C12.9056604,22.6108692 10.9796604,20.702485 8.60377358,20.702485 Z" id="Shape"></path>
                    <path d="M39.3962264,30.1249425 C34.0890566,30.1249425 30.7924528,32.8170732 30.7924528,37.1783249 C30.7924528,37.6739013 31.1979623,38.0757018 31.6981132,38.0757018 L47.0943396,38.0757018 C47.5944906,38.0757018 48,37.6739013 48,37.1783249 C48,32.8260469 44.7033962,30.1249425 39.3962264,30.1249425 Z" id="Shape"></path>
                    <path d="M39.3962264,20.702485 C37.0203396,20.702485 35.0943396,22.6108692 35.0943396,24.9650253 C35.0993208,27.3171623 37.0223774,29.22263 39.3962264,29.2275656 C41.7721132,29.2275656 43.6981132,27.3191814 43.6981132,24.9650253 C43.6981132,22.6108692 41.7721132,20.702485 39.3962264,20.702485 Z" id="Shape"></path>
                    <path d="M28.6822642,28.5724804 L24.9056604,24.8124712 L24.9056604,19.5179475 C24.9056604,19.0223711 24.5001509,18.6205706 24,18.6205706 C23.4998491,18.6205706 23.0943396,19.0223711 23.0943396,19.5179475 L23.0943396,24.8124712 L19.3177358,28.5545329 C18.9601132,28.903949 18.9560377,29.4744564 19.3086792,29.8288081 C19.6613208,30.1831598 20.2370943,30.187198 20.594717,29.8377819 L24,26.454671 L27.405283,29.8377819 C27.7852075,30.1601645 28.3569057,30.1163052 28.6822642,29.7398556 C28.9726415,29.4039001 28.9726415,28.9084359 28.6822642,28.5724804 Z" id="Path"></path>
                </g>
                <g id="008-network" transform="translate(13.000000, 16.000000)" fill="#FFFFFF" fill-rule="nonzero">
                    <path d="M24,9.48527382 C18.6928302,9.48527382 15.3962264,12.1774045 15.3962264,16.5386562 C15.3962264,17.0342326 15.8017358,17.4360331 16.3018868,17.4360331 L31.6981132,17.4360331 C32.1982642,17.4360331 32.6037736,17.0342326 32.6037736,16.5386562 C32.6037736,12.1863783 29.3071698,9.48527382 24,9.48527382 Z" id="Shape"></path>
                    <path d="M24,0.0628163829 C21.6241132,0.0628163829 19.6981132,1.97120053 19.6981132,4.32535665 C19.7030943,6.67749367 21.6261509,8.58296134 24,8.58789692 C26.3758868,8.58789692 28.3018868,6.67951277 28.3018868,4.32535665 C28.3018868,1.97120053 26.3758868,0.0628163829 24,0.0628163829 Z" id="Shape"></path>
                    <path d="M8.60377358,30.1249425 C3.29660377,30.1249425 0,32.8170732 0,37.1783249 C0,37.6739013 0.405509434,38.0757018 0.905660377,38.0757018 L16.3018868,38.0757018 C16.8020377,38.0757018 17.2075472,37.6739013 17.2075472,37.1783249 C17.2075472,32.8260469 13.9109434,30.1249425 8.60377358,30.1249425 Z" id="Shape"></path>
                    <path d="M8.60377358,20.702485 C6.22788679,20.702485 4.30188679,22.6108692 4.30188679,24.9650253 C4.30686792,27.3171623 6.22992453,29.22263 8.60377358,29.2275656 C10.9796604,29.2275656 12.9056604,27.3191814 12.9056604,24.9650253 C12.9056604,22.6108692 10.9796604,20.702485 8.60377358,20.702485 Z" id="Shape"></path>
                    <path d="M39.3962264,30.1249425 C34.0890566,30.1249425 30.7924528,32.8170732 30.7924528,37.1783249 C30.7924528,37.6739013 31.1979623,38.0757018 31.6981132,38.0757018 L47.0943396,38.0757018 C47.5944906,38.0757018 48,37.6739013 48,37.1783249 C48,32.8260469 44.7033962,30.1249425 39.3962264,30.1249425 Z" id="Shape"></path>
                    <path d="M39.3962264,20.702485 C37.0203396,20.702485 35.0943396,22.6108692 35.0943396,24.9650253 C35.0993208,27.3171623 37.0223774,29.22263 39.3962264,29.2275656 C41.7721132,29.2275656 43.6981132,27.3191814 43.6981132,24.9650253 C43.6981132,22.6108692 41.7721132,20.702485 39.3962264,20.702485 Z" id="Shape"></path>
                    <path d="M28.6822642,28.5724804 L24.9056604,24.8124712 L24.9056604,19.5179475 C24.9056604,19.0223711 24.5001509,18.6205706 24,18.6205706 C23.4998491,18.6205706 23.0943396,19.0223711 23.0943396,19.5179475 L23.0943396,24.8124712 L19.3177358,28.5545329 C18.9601132,28.903949 18.9560377,29.4744564 19.3086792,29.8288081 C19.6613208,30.1831598 20.2370943,30.187198 20.594717,29.8377819 L24,26.454671 L27.405283,29.8377819 C27.7852075,30.1601645 28.3569057,30.1163052 28.6822642,29.7398556 C28.9726415,29.4039001 28.9726415,28.9084359 28.6822642,28.5724804 Z" id="Path"></path>
                </g>
            </g>
        </g>
    </g>
</svg>