<?xml version="1.0" encoding="UTF-8"?>
<svg width="73px" height="73px" viewBox="0 0 73 73" version="1.1" xmlns="http://www.w3.org/2000/svg" xmlns:xlink="http://www.w3.org/1999/xlink">
    <!-- Generator: sketchtool 54 (76480) - https://sketchapp.com -->
    <title>B3315A71-0A41-4046-AF28-FAA733948EF0</title>
    <desc>Created with sketchtool.</desc>
    <g id="Page-1" stroke="none" stroke-width="1" fill="none" fill-rule="evenodd">
        <g id="ICRIME-FIGHTER-How-to-3" transform="translate(-1012.000000, -650.000000)">
            <g id="Group-7" transform="translate(1012.000000, 650.000000)">
                <g id="002-film" fill="#3E95E7" fill-rule="nonzero">
                    <path d="M36.4990267,0 C16.3415367,0 0.000243333333,16.34251 0.000243333333,36.49927 C0.000243333333,56.65603 16.3415367,73 36.4990267,73 C56.6565167,73 72.9997567,56.6570033 72.9997567,36.49927 C72.9997567,16.3415367 56.6565167,0 36.4990267,0 Z" id="Shape"></path>
                </g>
                <g id="Film-Copy" transform="translate(19.000000, 16.000000)" fill="#3085D5">
                    <path d="M37.4455933,39.9699333 L37.4455933,39.9699333 C37.44535,42.0608967 35.74956,43.7566867 33.6585967,43.7566867 L3.78675333,43.7566867 C1.69579,43.7566867 2.45137244e-13,42.0608967 2.45137244e-13,39.9699333 L2.45137244e-13,3.78675333 C2.45137244e-13,1.69579 1.69579,-2.84217094e-14 3.78675333,-2.84217094e-14 L33.65884,-2.84217094e-14 C35.7498033,-2.84217094e-14 37.4455933,1.69579 37.4455933,3.78675333 L37.4455933,39.9699333 L37.4455933,39.9699333 Z" id="Path"></path>
                </g>
                <g id="Film" transform="translate(18.000000, 15.000000)">
                    <path d="M37.4455933,39.9699333 L37.4455933,39.9699333 C37.44535,42.0608967 35.74956,43.7566867 33.6585967,43.7566867 L3.78675333,43.7566867 C1.69579,43.7566867 2.45137244e-13,42.0608967 2.45137244e-13,39.9699333 L2.45137244e-13,3.78675333 C2.45137244e-13,1.69579 1.69579,-2.84217094e-14 3.78675333,-2.84217094e-14 L33.65884,-2.84217094e-14 C35.7498033,-2.84217094e-14 37.4455933,1.69579 37.4455933,3.78675333 L37.4455933,39.9699333 L37.4455933,39.9699333 Z" id="Path" fill="#FFFFFF"></path>
                    <path d="M26.8155767,24.75649 L10.6290433,24.75649 C9.67542,24.75649 8.90356667,25.52956 8.90356667,26.4819667 L8.90356667,36.52482 C8.90356667,37.4784433 9.67615,38.2502967 10.6290433,38.2502967 L26.8155767,38.2502967 C27.7692,38.2502967 28.5410533,37.4777133 28.5410533,36.52482 L28.5410533,26.4819667 C28.5417833,25.52883 27.7692,24.75649 26.8155767,24.75649 Z" id="Path" fill="#3E95E7" fill-rule="nonzero"></path>
                    <rect id="Rectangle" fill="#3E95E7" fill-rule="nonzero" x="2.85065" y="12.9382767" width="3.26091" height="3.78675333"></rect>
                    <rect id="Rectangle" fill="#3E95E7" fill-rule="nonzero" x="2.85065" y="5.81201667" width="3.26091" height="3.78675333"></rect>
                    <rect id="Rectangle" fill="#3E95E7" fill-rule="nonzero" x="2.85065" y="34.3177867" width="3.26091" height="3.78675333"></rect>
                    <rect id="Rectangle" fill="#3E95E7" fill-rule="nonzero" x="2.85065" y="27.1912833" width="3.26091" height="3.78675333"></rect>
                    <rect id="Rectangle" fill="#3E95E7" fill-rule="nonzero" x="2.85065" y="20.06478" width="3.26091" height="3.78675333"></rect>
                    <path d="M26.8155767,5.50785 L10.6290433,5.50785 C9.67542,5.50785 8.90356667,6.28092 8.90356667,7.23332667 L8.90356667,17.27618 C8.90356667,18.2298033 9.67615,19.0016567 10.6290433,19.0016567 L26.8155767,19.0016567 C27.7692,19.0016567 28.5410533,18.2290733 28.5410533,17.27618 L28.5410533,7.23308333 C28.5417833,6.28019 27.7692,5.50785 26.8155767,5.50785 Z" id="Path" fill="#3E95E7" fill-rule="nonzero"></path>
                    <rect id="Rectangle" fill="#3E95E7" fill-rule="nonzero" x="31.3559333" y="5.81201667" width="3.26091" height="3.78675333"></rect>
                    <rect id="Rectangle" fill="#3E95E7" fill-rule="nonzero" x="31.3559333" y="34.3177867" width="3.26091" height="3.78675333"></rect>
                    <rect id="Rectangle" fill="#3E95E7" fill-rule="nonzero" x="31.3559333" y="12.9382767" width="3.26091" height="3.78675333"></rect>
                    <rect id="Rectangle" fill="#3E95E7" fill-rule="nonzero" x="31.3559333" y="27.1912833" width="3.26091" height="3.78675333"></rect>
                    <rect id="Rectangle" fill="#3E95E7" fill-rule="nonzero" x="31.3559333" y="20.06478" width="3.26091" height="3.78675333"></rect>
                </g>
            </g>
        </g>
    </g>
</svg>