<?xml version="1.0" encoding="UTF-8"?>
<svg width="73px" height="73px" viewBox="0 0 73 73" version="1.1" xmlns="http://www.w3.org/2000/svg" xmlns:xlink="http://www.w3.org/1999/xlink">
    <!-- Generator: sketchtool 54 (76480) - https://sketchapp.com -->
    <title>6924CCB2-461E-4A90-BFF8-9834BB83A475</title>
    <desc>Created with sketchtool.</desc>
    <g id="Page-1" stroke="none" stroke-width="1" fill="none" fill-rule="evenodd">
        <g id="ICRIME-FIGHTER-How-to-3" transform="translate(-743.000000, -651.000000)">
            <g id="Group-2" transform="translate(743.000000, 651.000000)">
                <circle id="Oval-Copy" fill="#3E95E7" cx="36.5" cy="36.5" r="36.5"></circle>
                <g id="001-camera" transform="translate(16.000000, 20.000000)" fill="#3085D5" fill-rule="nonzero">
                    <path d="M12.749661,20.1310861 C12.749661,24.9489382 16.6552528,28.85453 21.4731049,28.85453 C26.2909569,28.85453 30.1966292,24.9489382 30.1966292,20.1310861 C30.1966292,15.3132341 26.2910375,11.4076423 21.4731854,11.4076423 C16.6553333,11.4076423 12.749661,15.3132341 12.749661,20.1310861 Z M40.2621723,5.36831648 L30.8676386,5.36831648 C30.1966292,2.68411798 29.5256199,0 26.8414213,0 L16.1048689,0 C13.4207509,0 12.749661,2.68411798 12.0786517,5.36831648 L2.68411798,5.36831648 C1.20786517,5.36831648 0,6.57618165 0,8.05243446 L0,32.2097378 C0,33.6859906 1.20786517,34.8938558 2.68411798,34.8938558 L40.2621723,34.8938558 C41.7384251,34.8938558 42.9463708,33.6859906 42.9463708,32.2097378 L42.9463708,8.05243446 C42.9462903,6.57618165 41.7384251,5.36831648 40.2621723,5.36831648 Z M21.4731854,32.0420056 C14.8949906,32.0420056 9.56226592,26.7093614 9.56226592,20.1310861 C9.56226592,13.5528914 14.8949101,8.22016667 21.4731854,8.22016667 C28.0514607,8.22016667 33.3841049,13.5528109 33.3841049,20.1310861 C33.3840243,26.7093614 28.0515412,32.0420056 21.4731854,32.0420056 Z M40.2621723,13.4207509 L34.8939363,13.4207509 L34.8939363,10.736633 L40.2621723,10.736633 L40.2621723,13.4207509 Z" id="Shape"></path>
                </g>
                <g id="001-camera" transform="translate(13.000000, 17.000000)" fill="#FFFFFF" fill-rule="nonzero">
                    <path d="M12.749661,20.1310861 C12.749661,24.9489382 16.6552528,28.85453 21.4731049,28.85453 C26.2909569,28.85453 30.1966292,24.9489382 30.1966292,20.1310861 C30.1966292,15.3132341 26.2910375,11.4076423 21.4731854,11.4076423 C16.6553333,11.4076423 12.749661,15.3132341 12.749661,20.1310861 Z M40.2621723,5.36831648 L30.8676386,5.36831648 C30.1966292,2.68411798 29.5256199,0 26.8414213,0 L16.1048689,0 C13.4207509,0 12.749661,2.68411798 12.0786517,5.36831648 L2.68411798,5.36831648 C1.20786517,5.36831648 0,6.57618165 0,8.05243446 L0,32.2097378 C0,33.6859906 1.20786517,34.8938558 2.68411798,34.8938558 L40.2621723,34.8938558 C41.7384251,34.8938558 42.9463708,33.6859906 42.9463708,32.2097378 L42.9463708,8.05243446 C42.9462903,6.57618165 41.7384251,5.36831648 40.2621723,5.36831648 Z M21.4731854,32.0420056 C14.8949906,32.0420056 9.56226592,26.7093614 9.56226592,20.1310861 C9.56226592,13.5528914 14.8949101,8.22016667 21.4731854,8.22016667 C28.0514607,8.22016667 33.3841049,13.5528109 33.3841049,20.1310861 C33.3840243,26.7093614 28.0515412,32.0420056 21.4731854,32.0420056 Z M40.2621723,13.4207509 L34.8939363,13.4207509 L34.8939363,10.736633 L40.2621723,10.736633 L40.2621723,13.4207509 Z" id="Shape"></path>
                </g>
            </g>
        </g>
    </g>
</svg>