<?xml version="1.0" encoding="utf-8"?>
<!-- Generator: Adobe Illustrator 22.0.0, SVG Export Plug-In . SVG Version: 6.00 Build 0)  -->
<svg version="1.1" id="Layer_1" xmlns="http://www.w3.org/2000/svg" xmlns:xlink="http://www.w3.org/1999/xlink" x="0px" y="0px"
	 viewBox="0 0 40 40" style="enable-background:new 0 0 40 40;" xml:space="preserve">
<style type="text/css">
	.st0{fill:#3085D5;}
</style>
<title>375237FE-2267-4651-9483-46D59DDB882C</title>
<desc>Created with sketchtool.</desc>
<g id="Page-1">
	<g id="ICRIME-FIGHTER-How-to-3" transform="translate(-78.000000, -1524.000000)">
		<g id="_x30_01-camera" transform="translate(78.000000, 1524.000000)">
			<path id="Shape" class="st0" d="M12.9,22.2c0,3.9,3.2,7,7.1,7s7.1-3.1,7.1-7s-3.2-7-7.1-7S12.9,18.3,12.9,22.2z M35.3,10.3h-7.6
				C27.1,8.2,26.6,6,24.4,6h-8.7c-2.2,0-2.7,2.2-3.3,4.3H4.7c-1.2,0-2.2,1-2.2,2.2v19.4c0,1.2,1,2.2,2.2,2.2h30.6
				c1.2,0,2.2-1,2.2-2.2V12.5C37.5,11.3,36.5,10.3,35.3,10.3z M20,31.7c-5.4,0-9.7-4.3-9.7-9.5c0-5.3,4.3-9.5,9.7-9.5
				s9.7,4.3,9.7,9.5C29.7,27.4,25.4,31.7,20,31.7z M35.3,16.8h-4.4v-2.2h4.4V16.8z"/>
		</g>
	</g>
</g>
</svg>
