<?xml version="1.0" encoding="UTF-8"?>
<svg width="35px" height="28px" viewBox="0 0 35 28" version="1.1" xmlns="http://www.w3.org/2000/svg" xmlns:xlink="http://www.w3.org/1999/xlink">
    <!-- Generator: sketchtool 54 (76480) - https://sketchapp.com -->
    <title>375237FE-2267-4651-9483-46D59DDB882C</title>
    <desc>Created with sketchtool.</desc>
    <g id="Page-1" stroke="none" stroke-width="1" fill="none" fill-rule="evenodd">
        <g id="ICRIME-FIGHTER-How-to-3" transform="translate(-78.000000, -1524.000000)" fill="#3085D5" fill-rule="nonzero">
            <g id="001-camera" transform="translate(78.000000, 1524.000000)">
                <path d="M10.3776311,16.1290323 C10.3776311,19.9890968 13.5566011,23.1182581 17.4781086,23.1182581 C21.3996161,23.1182581 24.5786517,19.9890968 24.5786517,16.1290323 C24.5786517,12.2689677 21.3996816,9.13980645 17.4781742,9.13980645 C13.5566667,9.13980645 10.3776311,12.2689677 10.3776311,16.1290323 Z M32.7715356,4.30109677 L25.1248221,4.30109677 C24.5786517,2.15051613 24.0324813,0 21.8476685,0 L13.1086142,0 C10.923867,0 10.3776311,2.15051613 9.83146067,4.30109677 L2.18474719,4.30109677 C0.983146067,4.30109677 0,5.26883871 0,6.4516129 L0,25.8064516 C0,26.9892258 0.983146067,27.9569677 2.18474719,27.9569677 L32.7715356,27.9569677 C33.9731367,27.9569677 34.9563483,26.9892258 34.9563483,25.8064516 L34.9563483,6.4516129 C34.9562828,5.26883871 33.9731367,4.30109677 32.7715356,4.30109677 Z M17.4781742,25.6720645 C12.1238296,25.6720645 7.7832397,21.3995484 7.7832397,16.1290323 C7.7832397,10.8585806 12.123764,6.586 17.4781742,6.586 C22.8325843,6.586 27.1731086,10.8585161 27.1731086,16.1290323 C27.1730431,21.3995484 22.8326498,25.6720645 17.4781742,25.6720645 Z M32.7715356,10.7527097 L28.4020412,10.7527097 L28.4020412,8.60219355 L32.7715356,8.60219355 L32.7715356,10.7527097 Z" id="Shape"></path>
            </g>
        </g>
    </g>
</svg>