<?xml version="1.0" encoding="utf-8"?>
<!-- Generator: Adobe Illustrator 22.0.0, SVG Export Plug-In . SVG Version: 6.00 Build 0)  -->
<svg version="1.1" id="Layer_1" xmlns="http://www.w3.org/2000/svg" xmlns:xlink="http://www.w3.org/1999/xlink" x="0px" y="0px"
	 viewBox="0 0 40 40" style="enable-background:new 0 0 40 40;" xml:space="preserve">
<style type="text/css">
	.st0{filter:url(#Adobe_OpacityMaskFilter);}
	.st1{fill:#FFFFFF;}
	.st2{mask:url(#mask-2_1_);fill:#3085D5;}
</style>
<title>Group 3</title>
<desc>Created with Sketch.</desc>
<g id="Page-1">
	<g id="ICRIME-FIGHTER-How-to-quatraccent-font" transform="translate(-345.000000, -1638.000000)">
		<g id="Group-3" transform="translate(345.000000, 1638.000000)">
			<g id="Clip-2">
			</g>
			<defs>
				<filter id="Adobe_OpacityMaskFilter" filterUnits="userSpaceOnUse" x="0" y="0" width="39.9" height="39.9">
					<feColorMatrix  type="matrix" values="1 0 0 0 0  0 1 0 0 0  0 0 1 0 0  0 0 0 1 0"/>
				</filter>
			</defs>
			<mask maskUnits="userSpaceOnUse" x="0" y="0" width="39.9" height="39.9" id="mask-2_1_">
				<g class="st0">
					<polygon id="path-1_1_" class="st1" points="0,0 40,0 40,39.9 0,39.9 					"/>
				</g>
			</mask>
			<path id="Fill-1" class="st2" d="M22.1,13c0.3-3.5,0.6-7,0.8-10.5c-1.2-0.1-2.3-0.1-3.4-0.2c0.5,3.6,0.9,7,1.4,10.5
				C21.3,12.8,21.7,12.9,22.1,13 M20,16.7c-1.8,0-3.3,1.5-3.3,3.3c0,1.8,1.5,3.3,3.3,3.3c1.8,0,3.3-1.5,3.3-3.3
				C23.3,18.2,21.8,16.7,20,16.7 M19.1,27.1c-1.2-0.2-2.3-0.6-3.3-1.3c-0.2-0.2-0.4-0.2-0.6,0c-2.5,2.2-4.9,4.3-7.4,6.5
				c-0.1,0-0.1,0.1-0.2,0.1c2.1,2.2,5.3,4,7.9,4.6C16.7,33.6,17.9,30.4,19.1,27.1 M33.3,8.5c-2.1-2.4-4.5-4.1-7.5-5.1
				c-0.9,3.4-1.9,6.7-2.8,10.1c1.2,0.6,2.2,1.4,2.9,2.6C28.5,13.5,30.9,11,33.3,8.5 M18.8,0h2.3c0.1,0,0.2,0.1,0.3,0.1
				c2.4,0.2,4.8,0.7,7,1.8c6.1,3,9.9,7.9,11.2,14.6c0.1,0.8,0.2,1.5,0.3,2.3v2.3c0,0.1-0.1,0.2-0.1,0.3c-0.2,2.8-0.9,5.4-2.3,7.9
				c-3.7,6.5-9.3,10.1-16.8,10.6c-3.6,0.2-7-0.5-10.2-2.3C4.1,33.9,0.6,28.3,0.1,20.8c-0.2-3.6,0.6-7,2.3-10.2
				C5.5,5,10.2,1.5,16.5,0.3C17.3,0.2,18.1,0.1,18.8,0"/>
		</g>
	</g>
</g>
</svg>
