<?xml version="1.0" encoding="utf-8"?>
<!-- Generator: Adobe Illustrator 22.0.0, SVG Export Plug-In . SVG Version: 6.00 Build 0)  -->
<svg version="1.1" id="Layer_1" xmlns="http://www.w3.org/2000/svg" xmlns:xlink="http://www.w3.org/1999/xlink" x="0px" y="0px"
	 viewBox="0 0 40 40" style="enable-background:new 0 0 40 40;" xml:space="preserve">
<style type="text/css">
	.st0{filter:url(#Adobe_OpacityMaskFilter);}
	.st1{fill:#FFFFFF;}
	.st2{mask:url(#mask-2_1_);fill:#3085D5;}
	.st3{filter:url(#Adobe_OpacityMaskFilter_1_);}
	.st4{mask:url(#mask-4_1_);fill:#3085D5;}
	.st5{fill:#3085D5;}
</style>
<title>Group 9</title>
<desc>Created with Sketch.</desc>
<g id="Page-1">
	<g id="ICRIME-FIGHTER-How-to-quatraccent-font" transform="translate(-345.000000, -1700.000000)">
		<g id="Group-9" transform="translate(345.000000, 1700.000000)">
			<g id="Group-3" transform="translate(1.720430, 0.379957)">
				<g id="Clip-2">
				</g>
				<defs>
					<filter id="Adobe_OpacityMaskFilter" filterUnits="userSpaceOnUse" x="8.1" y="-0.2" width="11.7" height="8.6">
						<feColorMatrix  type="matrix" values="1 0 0 0 0  0 1 0 0 0  0 0 1 0 0  0 0 0 1 0"/>
					</filter>
				</defs>
				<mask maskUnits="userSpaceOnUse" x="8.1" y="-0.2" width="11.7" height="8.6" id="mask-2_1_">
					<g class="st0">
						<polygon id="path-1_1_" class="st1" points="8.1,-0.2 19.8,-0.2 19.8,8.4 8.1,8.4 						"/>
					</g>
				</mask>
				<path id="Fill-1" class="st2" d="M13.1-0.2c1.5,1,3.1,0.6,4.6,0.4c2.2-0.3,2.4,0,1.6,2c-0.3,0.8-0.8,1.2-1.7,1.2
					c-0.3,0-0.6,0.1-0.9,0.1c-0.1,0.6-0.1,1.1-0.2,1.6c-0.6,2-2.4,3.4-4.5,3.2c-2.1-0.2-3.7-1.8-3.9-4c-0.2-2,1.2-3.9,3.2-4.4
					c0.1,0,0.3-0.1,0.4-0.2H13.1z"/>
			</g>
			<g id="Group-6" transform="translate(0.000000, 10.272430)">
				<g id="Clip-5">
				</g>
				<defs>
					<filter id="Adobe_OpacityMaskFilter_1_" filterUnits="userSpaceOnUse" x="7.8" y="0" width="19.4" height="29.5">
						<feColorMatrix  type="matrix" values="1 0 0 0 0  0 1 0 0 0  0 0 1 0 0  0 0 0 1 0"/>
					</filter>
				</defs>
				<mask maskUnits="userSpaceOnUse" x="7.8" y="0" width="19.4" height="29.5" id="mask-4_1_">
					<g class="st3">
						<polygon id="path-3_1_" class="st1" points="7.8,0 27.1,0 27.1,29.5 7.8,29.5 						"/>
					</g>
				</mask>
				<path id="Fill-4" class="st4" d="M19.4,11c0.2,1,0.2,1.7,0.4,2.4c0.9,2.5,2,5,2.7,7.6c0.6,2.3,0.6,4.7,0.8,7.1
					c0.1,0.8-0.5,1.3-1.4,1.4c-1.4,0.1-2.1-0.3-2.3-1.4c-0.2-1.5-0.3-3-0.6-4.5c-0.2-0.9-0.4-1.8-0.9-2.6c-0.8-1.4-1.8-2.8-2.8-4.3
					c-0.4,1.7-0.6,3.3-1.2,4.8c-0.9,2.4-2,4.7-3.1,7c-0.5,1.1-1.6,0.9-2.8,0.4c-0.7-0.3-0.8-1-0.3-2.1c0.5-1.2,1-2.5,1.7-3.7
					c1.1-2.1,1-4.3,1.1-6.5c0.1-4.8,0-9.7,0.1-14.5c0-1.6,0.3-1.9,1.9-2C14.3,0.1,16,0,17.6,0c1.3,0,1.8,0.3,1.9,1.6
					c0.3,1.9,0.6,3.8,0.9,5.7c0.1,0.7,0.4,1,1.1,0.9c1.2,0,2.5,0,3.7,0c0.3,0,0.7,0,1,0.1c0.7,0.2,1,0.7,1,1.4
					c0,0.7-0.4,1.1-1.1,1.1C25.3,11,24.6,11,23.8,11C22.4,11,21,11,19.4,11"/>
			</g>
			<path id="Fill-7" class="st5" d="M27,16.9c-1.3,0-2.6,0-3.9,0c-0.9,0-1.4-0.5-1.5-1.4c-0.1-1.9-0.3-3.7-0.4-5.6
				c-0.1-1.1,0.4-1.6,1.5-1.6c2.5,0,5,0,7.5,0c1,0,1.5,0.5,1.6,1.5c0.1,1.8,0.3,3.6,0.4,5.4c0.1,1.2-0.4,1.6-1.5,1.6
				C29.5,16.9,28.3,16.9,27,16.9L27,16.9z"/>
		</g>
	</g>
</g>
</svg>
