<?xml version="1.0" encoding="UTF-8"?>
<svg width="25px" height="40px" viewBox="0 0 25 40" version="1.1" xmlns="http://www.w3.org/2000/svg" xmlns:xlink="http://www.w3.org/1999/xlink">
    <!-- Generator: Sketch 54 (76480) - https://sketchapp.com -->
    <title>Group 9</title>
    <desc>Created with Sketch.</desc>
    <defs>
        <polygon id="path-1" points="0.311380797 0.0503225806 12.01539 0.0503225806 12.01539 8.66417013 0.311380797 8.66417013"></polygon>
        <polygon id="path-3" points="0 0.165230117 19.369945 0.165230117 19.369945 29.6773953 0 29.6773953"></polygon>
    </defs>
    <g id="Page-1" stroke="none" stroke-width="1" fill="none" fill-rule="evenodd">
        <g id="ICRIME-FIGHTER-How-to-quatraccent-font" transform="translate(-345.000000, -1700.000000)">
            <g id="Group-9" transform="translate(345.000000, 1700.000000)">
                <g id="Group-3" transform="translate(1.720430, 0.379957)">
                    <mask id="mask-2" fill="white">
                        <use xlink:href="#path-1"></use>
                    </mask>
                    <g id="Clip-2"></g>
                    <path d="M5.35260215,0.0501505376 C6.8184086,1.00886022 8.4123871,0.684129032 9.98141935,0.484129032 C12.1470108,0.208430108 12.3865806,0.502193548 11.6141075,2.51595699 C11.3048602,3.32197849 10.7715269,3.73488172 9.90873118,3.75810753 C9.59217204,3.76670968 9.27776344,3.84455914 8.96378495,3.89058065 C8.88292473,4.44068817 8.86012903,4.96713978 8.72335484,5.46176344 C8.15819355,7.4996129 6.27690323,8.82950538 4.27045161,8.64756989 C2.13754839,8.45445161 0.528516129,6.81617204 0.327655914,4.63466667 C0.145290323,2.64326882 1.51303226,0.76627957 3.5495914,0.208 C3.68636559,0.170580645 3.81539785,0.103483871 3.94787097,0.0501505376 L5.35260215,0.0501505376 Z" id="Fill-1" fill="#3085D5" mask="url(#mask-2)"></path>
                </g>
                <g id="Group-6" transform="translate(0.000000, 10.272430)">
                    <mask id="mask-4" fill="white">
                        <use xlink:href="#path-3"></use>
                    </mask>
                    <g id="Clip-5"></g>
                    <path d="M11.6685591,11.228129 C11.8457634,12.207914 11.8831828,12.9365161 12.1141505,13.5975914 C12.9980215,16.1283441 14.1606022,18.5829677 14.8027527,21.1696344 C15.3747957,23.4728602 15.4225376,25.9098495 15.6457634,28.2930753 C15.7206022,29.0930753 15.1365161,29.5932903 14.2530753,29.6621075 C12.8995269,29.767914 12.1167312,29.3253333 11.9808172,28.3085591 C11.7795269,26.8036129 11.6917849,25.2806022 11.4272688,23.788129 C11.2685591,22.8904946 10.992,21.9649032 10.5464086,21.1773763 C9.73393548,19.7425376 8.75630108,18.4014624 7.73780645,16.8543656 C7.31544086,18.588129 7.08963441,20.1876989 6.52963441,21.659957 C5.6208172,24.0474839 4.56404301,26.3868387 3.4264086,28.6750108 C2.89350538,29.7464086 1.79329032,29.5963011 0.622537634,29.0767312 C-0.104344086,28.7537204 -0.171870968,28.0818925 0.300817204,27.0135054 C0.843612903,25.7868387 1.32877419,24.5296344 1.95113978,23.3446882 C3.03501075,21.2827527 2.98425806,19.0492043 3.01565591,16.8423226 C3.0836129,12.0169462 3.06167742,7.19027957 3.0831828,2.36404301 C3.09006452,0.768344086 3.3747957,0.459956989 4.94941935,0.376946237 C6.58425806,0.290494624 8.2203871,0.222107527 9.85694624,0.168344086 C11.1588817,0.125763441 11.6130753,0.512860215 11.8066237,1.76275269 C12.1021075,3.66597849 12.4221075,5.56619355 12.6806022,7.47458065 C12.7739355,8.16490323 13.0668387,8.43372043 13.7597419,8.4208172 C14.9876989,8.3975914 16.2165161,8.43113978 17.4449032,8.45565591 C17.7636129,8.46210753 18.0969462,8.47630108 18.3971613,8.57135484 C19.0543656,8.77995699 19.4057634,9.25909677 19.3670538,9.9575914 C19.3296344,10.635871 18.9322151,11.0371613 18.2651183,11.1033978 C17.5386667,11.1752258 16.8066237,11.2135054 16.0767312,11.2229677 C14.6827527,11.2410323 13.2883441,11.228129 11.6685591,11.228129" id="Fill-4" fill="#3085D5" mask="url(#mask-4)"></path>
                </g>
                <path d="M19.2802581,17.1152688 C17.9933763,17.1152688 16.7064946,17.1303226 15.4196129,17.1101075 C14.5335914,17.095914 13.9946667,16.5965591 13.9288602,15.7156989 C13.7895054,13.8507527 13.6613333,11.984086 13.568,10.1165591 C13.5125161,9.00387097 13.9473548,8.54924731 15.0535914,8.54021505 C17.5391828,8.52 20.0252043,8.51913978 22.5112258,8.53290323 C23.559828,8.53892473 24.0514409,9.04129032 24.1215484,10.0808602 C24.2436989,11.8886022 24.3826237,13.6950538 24.4875699,15.504086 C24.5555269,16.6662366 24.1236989,17.1036559 22.9649892,17.1092473 C21.7370323,17.1152688 20.5082151,17.1105376 19.2802581,17.1105376 L19.2802581,17.1152688 Z" id="Fill-7" fill="#3085D5"></path>
            </g>
        </g>
    </g>
</svg>