<?xml version="1.0" encoding="UTF-8"?>
<svg width="23px" height="40px" viewBox="0 0 23 40" version="1.1" xmlns="http://www.w3.org/2000/svg" xmlns:xlink="http://www.w3.org/1999/xlink">
    <!-- Generator: sketchtool 54 (76480) - https://sketchapp.com -->
    <title>7CD33E5B-594F-4072-BEE7-881690417296</title>
    <desc>Created with sketchtool.</desc>
    <g id="Page-1" stroke="none" stroke-width="1" fill="none" fill-rule="evenodd">
        <g id="ICRIME-FIGHTER-How-to-3" transform="translate(-346.000000, -1515.000000)" fill="#3085D5" fill-rule="nonzero">
            <g id="004-recorder-microphone" transform="translate(346.000000, 1515.000000)">
                <path d="M10.6648855,26.5725191 L11.5418321,26.5725191 C14.968855,26.5725191 17.7465649,23.7948092 17.7465649,20.3677863 L17.7465649,6.20473282 C17.7465649,2.77770992 14.968855,0 11.5418321,0 L10.6648855,0 C7.2378626,0 4.46015267,2.77770992 4.46015267,6.20473282 L4.46015267,20.3679389 C4.46030534,23.7948092 7.2378626,26.5725191 10.6648855,26.5725191 Z" id="Path"></path>
                <path d="M10.2729771,30.7094656 L10.2729771,37.3674809 L4.46030534,37.3674809 C3.77267176,37.3674809 3.21465649,37.9247328 3.21465649,38.6131298 C3.21465649,39.3015267 3.77267176,39.8587786 4.46030534,39.8587786 L18.5769466,39.8587786 C19.2645802,39.8587786 19.8225954,39.3015267 19.8225954,38.6131298 C19.8225954,37.9247328 19.2645802,37.3674809 18.5769466,37.3674809 L12.7642748,37.3674809 L12.7642748,30.6769466 C18.0821374,30.1978626 22.4225954,25.4189313 22.4225954,19.8054962 C22.4225954,19.1170992 21.8645802,18.5598473 21.1769466,18.5598473 C20.489313,18.5598473 19.9312977,19.1170992 19.9312977,19.8054962 C19.9312977,24.3734351 16.2485496,28.2331298 11.889771,28.2331298 L10.5636641,28.2331298 C6.20580153,28.2331298 2.52305344,24.4622901 2.52305344,19.9981679 C2.52305344,19.309771 1.96503817,18.7525191 1.27740458,18.7525191 C0.589770992,18.7525191 0.0317557252,19.309771 0.0317557252,19.9981679 C0.0317557252,25.8126718 4.60061069,30.5509924 10.2729771,30.7094656 Z" id="Path"></path>
            </g>
        </g>
    </g>
</svg>