<?xml version="1.0" encoding="utf-8"?>
<!-- Generator: Adobe Illustrator 22.0.0, SVG Export Plug-In . SVG Version: 6.00 Build 0)  -->
<svg version="1.1" id="Layer_1" xmlns="http://www.w3.org/2000/svg" xmlns:xlink="http://www.w3.org/1999/xlink" x="0px" y="0px"
	 viewBox="0 0 40 40" style="enable-background:new 0 0 40 40;" xml:space="preserve">
<style type="text/css">
	.st0{fill:#3085D5;}
</style>
<title>7CD33E5B-594F-4072-BEE7-881690417296</title>
<desc>Created with sketchtool.</desc>
<g id="Page-1">
	<g id="ICRIME-FIGHTER-How-to-3" transform="translate(-346.000000, -1515.000000)">
		<g id="_x30_04-recorder-microphone" transform="translate(346.000000, 1515.000000)">
			<path id="Path" class="st0" d="M19.4,26.6h0.9c3.4,0,6.2-2.8,6.2-6.2V6.2c0-3.4-2.8-6.2-6.2-6.2h-0.9c-3.4,0-6.2,2.8-6.2,6.2
				v14.2C13.2,23.8,16,26.6,19.4,26.6z"/>
			<path id="Path_1_" class="st0" d="M19,30.7v6.7h-5.8c-0.7,0-1.2,0.6-1.2,1.2s0.6,1.2,1.2,1.2h14.1c0.7,0,1.2-0.6,1.2-1.2
				s-0.6-1.2-1.2-1.2h-5.8v-6.7c5.3-0.5,9.7-5.3,9.7-10.9c0-0.7-0.6-1.2-1.2-1.2s-1.2,0.6-1.2,1.2c0,4.6-3.7,8.4-8,8.4h-1.3
				c-4.4,0-8-3.8-8-8.2c0-0.7-0.6-1.2-1.2-1.2S8.8,19.3,8.8,20C8.8,25.8,13.4,30.6,19,30.7z"/>
		</g>
	</g>
</g>
</svg>
