<?xml version="1.0" encoding="UTF-8"?>
<svg width="37px" height="40px" viewBox="0 0 37 40" version="1.1" xmlns="http://www.w3.org/2000/svg" xmlns:xlink="http://www.w3.org/1999/xlink">
    <!-- Generator: sketchtool 54 (76480) - https://sketchapp.com -->
    <title>F9302125-3176-4C48-83B4-9180D7CB8FF9</title>
    <desc>Created with sketchtool.</desc>
    <g id="Page-1" stroke="none" stroke-width="1" fill="none" fill-rule="evenodd">
        <g id="ICRIME-FIGHTER-How-to-3" transform="translate(-346.000000, -1618.000000)" fill="#3085D5" fill-rule="nonzero">
            <g id="006-notepad-1" transform="translate(346.000000, 1618.000000)">
                <path d="M21.9157298,32.2596875 L17.7161511,34.1540625 C17.3000979,34.3417187 16.8604277,34.436875 16.4091851,34.436875 C15.8702447,34.436875 15.3523234,34.3007031 14.8959638,34.0509375 C14.8732915,34.0521875 14.8507766,34.054375 14.8277106,34.054375 L5.91504043,34.054375 C5.26289574,34.054375 4.73418936,33.5296875 4.73418936,32.8825 C4.73418936,32.2353125 5.26289574,31.710625 5.91504043,31.710625 L13.2878809,31.710625 C13.2140383,31.1434375 13.2983511,30.5577344 13.5464872,30.0160937 L13.8438255,29.366875 L5.91504043,29.366875 C5.26289574,29.366875 4.73418936,28.8421875 4.73418936,28.195 C4.73418936,27.5478125 5.26289574,27.023125 5.91504043,27.023125 L14.9172979,27.023125 L15.4610404,25.8359375 C15.4624574,25.8328125 15.4640319,25.8303125 15.4655277,25.8273437 C15.5813298,25.5772656 15.741217,25.3467969 15.9410957,25.1484375 L16.4138298,24.679375 L5.91504043,24.679375 C5.26289574,24.679375 4.73418936,24.1546875 4.73418936,23.5075 C4.73418936,22.8603125 5.26289574,22.335625 5.91504043,22.335625 L18.7755319,22.335625 L21.137234,19.9919531 L5.91504043,19.9919531 C5.26289574,19.9919531 4.73418936,19.4672656 4.73418936,18.8200781 C4.73418936,18.1728906 5.26289574,17.6482031 5.91504043,17.6482031 L23.4989362,17.6482031 L29.617634,11.5760937 L29.6447936,11.5492187 L29.6447936,5.23445312 C29.6447936,4.58726563 29.1160872,4.06257812 28.4639426,4.06257812 L25.7086234,4.06257812 L25.7086234,1.171875 C25.7086234,0.5246875 25.179917,0 24.5277723,0 C23.8756277,0 23.3469213,0.5246875 23.3469213,1.171875 L23.3469213,4.0625 L20.8727234,4.0625 L20.8727234,1.171875 C20.8727234,0.5246875 20.344017,0 19.6918723,0 C19.0397277,0 18.5110213,0.5246875 18.5110213,1.171875 L18.5110213,4.0625 L16.0367447,4.0625 L16.0367447,1.171875 C16.0367447,0.5246875 15.5080383,0 14.8558936,0 C14.2037489,0 13.6750426,0.5246875 13.6750426,1.171875 L13.6750426,4.0625 L11.2008447,4.0625 L11.2008447,1.171875 C11.2008447,0.5246875 10.6721383,0 10.0199936,0 C9.36784894,0 8.83914255,0.5246875 8.83914255,1.171875 L8.83914255,4.0625 L6.36494468,4.0625 L6.36494468,1.171875 C6.36494468,0.5246875 5.8362383,0 5.18409362,0 C4.53194894,0 4.00324255,0.5246875 4.00324255,1.171875 L4.00324255,4.0625 L1.19163617,4.0625 C0.539491489,4.0625 0.0107851064,4.5871875 0.0107851064,5.234375 L0.0107851064,36.484375 C0.0107851064,38.4228906 1.59997447,40 3.5533383,40 L26.1022404,40 C28.0556043,40 29.6447936,38.4228906 29.6447936,36.484375 L29.6447936,24.8072656 L22.6210128,31.7775781 C22.4111362,31.9858594 22.1714234,32.1461719 21.9157298,32.2596875 Z M14.8558936,15.3044531 L5.91504043,15.3044531 C5.26289574,15.3044531 4.73418936,14.7797656 4.73418936,14.1325781 C4.73418936,13.4853906 5.26289574,12.9607031 5.91504043,12.9607031 L14.8558936,12.9607031 C15.5080383,12.9607031 16.0367447,13.4853906 16.0367447,14.1325781 C16.0367447,14.7798437 15.5080383,15.3044531 14.8558936,15.3044531 Z" id="Shape"></path>
                <path d="M29.617634,14.890625 L17.6110553,26.8057813 L15.6965021,30.9858594 C15.3954638,31.6430469 16.0767362,32.3190625 16.7389574,32.0203906 L20.9510532,30.1203906 L20.9510532,30.1203906 L32.9575532,18.2051563 L29.617634,14.890625 L29.617634,14.890625 Z" id="Path"></path>
                <path d="M36.2975511,11.5760938 C35.3752277,10.6607812 33.8798766,10.6607812 32.9576319,11.5760938 L31.2876723,13.2333594 L34.6275915,16.5478906 L36.2975511,14.890625 C37.2197957,13.9753125 37.2197957,12.4914062 36.2975511,11.5760938 Z" id="Path"></path>
            </g>
        </g>
    </g>
</svg>