<?xml version="1.0" encoding="utf-8"?>
<!-- Generator: Adobe Illustrator 22.0.0, SVG Export Plug-In . SVG Version: 6.00 Build 0)  -->
<svg version="1.1" id="Layer_1" xmlns="http://www.w3.org/2000/svg" xmlns:xlink="http://www.w3.org/1999/xlink" x="0px" y="0px"
	 viewBox="0 0 40 40" style="enable-background:new 0 0 40 40;" xml:space="preserve">
<style type="text/css">
	.st0{fill:#3085D5;}
</style>
<title>F9302125-3176-4C48-83B4-9180D7CB8FF9</title>
<desc>Created with sketchtool.</desc>
<g id="Page-1">
	<g id="ICRIME-FIGHTER-How-to-3" transform="translate(-346.000000, -1618.000000)">
		<g id="_x30_06-notepad-1" transform="translate(346.000000, 1618.000000)">
			<path id="Shape" class="st0" d="M23.4,32.3l-4.2,1.9c-0.4,0.2-0.9,0.3-1.3,0.3c-0.5,0-1.1-0.1-1.5-0.4c0,0,0,0-0.1,0H7.4
				c-0.7,0-1.2-0.5-1.2-1.2s0.5-1.2,1.2-1.2h7.4c-0.1-0.6,0-1.2,0.3-1.7l0.3-0.6H7.4c-0.7,0-1.2-0.5-1.2-1.2c0-0.6,0.5-1.2,1.2-1.2
				h9l0.5-1.2c0,0,0,0,0,0c0.1-0.3,0.3-0.5,0.5-0.7l0.5-0.5H7.4c-0.7,0-1.2-0.5-1.2-1.2c0-0.6,0.5-1.2,1.2-1.2h12.9l2.4-2.3H7.4
				c-0.7,0-1.2-0.5-1.2-1.2s0.5-1.2,1.2-1.2H25l6.1-6.1l0,0V5.2c0-0.6-0.5-1.2-1.2-1.2h-2.8V1.2C27.2,0.5,26.7,0,26,0
				c-0.7,0-1.2,0.5-1.2,1.2v2.9h-2.5V1.2c0-0.6-0.5-1.2-1.2-1.2C20.5,0,20,0.5,20,1.2v2.9h-2.5V1.2C17.5,0.5,17,0,16.4,0
				c-0.7,0-1.2,0.5-1.2,1.2v2.9h-2.5V1.2c0-0.6-0.5-1.2-1.2-1.2s-1.2,0.5-1.2,1.2v2.9H7.9V1.2C7.9,0.5,7.3,0,6.7,0S5.5,0.5,5.5,1.2
				v2.9H2.7C2,4.1,1.5,4.6,1.5,5.2v31.3c0,1.9,1.6,3.5,3.5,3.5h22.5c2,0,3.5-1.6,3.5-3.5V24.8l-7,7C23.9,32,23.7,32.1,23.4,32.3z
				 M16.4,15.3H7.4c-0.7,0-1.2-0.5-1.2-1.2S6.8,13,7.4,13h8.9c0.7,0,1.2,0.5,1.2,1.2C17.5,14.8,17,15.3,16.4,15.3z"/>
			<path id="Path" class="st0" d="M31.1,14.9l-12,11.9L17.2,31c-0.3,0.7,0.4,1.3,1,1l4.2-1.9l0,0l12-11.9L31.1,14.9L31.1,14.9z"/>
			<path id="Path_1_" class="st0" d="M37.8,11.6c-0.9-0.9-2.4-0.9-3.3,0l-1.7,1.7l3.3,3.3l1.7-1.7C38.7,14,38.7,12.5,37.8,11.6z"/>
		</g>
	</g>
</g>
</svg>
