<?xml version="1.0" encoding="UTF-8"?>
<svg width="35px" height="35px" viewBox="0 0 35 35" version="1.1" xmlns="http://www.w3.org/2000/svg" xmlns:xlink="http://www.w3.org/1999/xlink">
    <!-- Generator: Sketch 54 (76480) - https://sketchapp.com -->
    <title>Group 8</title>
    <desc>Created with Sketch.</desc>
    <defs>
        <polygon id="path-1" points="0.000123318309 0.0368525933 34.9624425 0.0368525933 34.9624425 10.3648069 0.000123318309 10.3648069"></polygon>
    </defs>
    <g id="Page-1" stroke="none" stroke-width="1" fill="none" fill-rule="evenodd">
        <g id="ICRIME-FIGHTER-How-to-quatraccent-font" transform="translate(-76.000000, -1707.000000)">
            <g id="Group-8" transform="translate(76.000000, 1707.000000)">
                <path d="M30.7630322,6.75686266 C31.6984185,6.7541588 32.4443841,6.01074678 32.4448348,5.0813691 C32.4452854,4.15334335 31.693912,3.39851502 30.7690408,3.39746352 C29.8130751,3.3962618 29.0612511,4.14643348 29.0657575,5.0968412 C29.0701137,6.01750644 29.8289979,6.75971674 30.7630322,6.75686266 M25.6566373,3.39716309 C24.7201996,3.40272103 23.9808433,4.13651931 23.969427,5.07100429 C23.9581609,6.00924464 24.7292124,6.76797854 25.6839764,6.75791416 C26.612603,6.74815021 27.3590193,5.98896567 27.3486545,5.06454506 C27.3381395,4.13561803 26.5831609,3.39145494 25.6566373,3.39716309 M20.4186545,6.75701288 C21.356294,6.7531073 22.0974528,6.01645494 22.1025601,5.08332189 C22.107367,4.15950215 21.3534399,3.40046781 20.4285687,3.39806438 C19.4720021,3.39566094 18.719427,4.14448069 18.7239335,5.09458798 C18.7281395,6.01765665 19.4859721,6.76091845 20.4186545,6.75701288 M17.4858648,10.3277639 C12.4024528,10.3277639 7.31889056,10.3282146 2.23547854,10.3274635 C0.790864807,10.3273133 -0.000315450644,9.52787124 0.000435622318,8.07724893 C0.00148712446,6.09802146 -0.00151716738,4.11879399 0.00118669528,2.13941631 C0.00298927039,0.842012876 0.837281116,0.00231330472 2.1403927,0.00201287554 C12.3642983,-0.000540772532 22.5882039,-0.000690987124 32.8122597,0.00201287554 C34.1424099,0.00246351931 34.9567232,0.830296137 34.9595773,2.17291416 C34.9639335,4.19495279 34.9631824,6.2168412 34.9591266,8.23887983 C34.956573,9.4873133 34.1180751,10.3256609 32.8643841,10.326412 C27.7381609,10.3294163 22.6119378,10.3276137 17.4858648,10.3277639" id="Fill-1" fill="#3085D5"></path>
                <path d="M30.744691,18.7239335 C31.6829313,18.7290408 32.4294979,18.0005 32.443618,17.0663155 C32.4572876,16.1408433 31.7098197,15.3724957 30.7873519,15.3640837 C29.829133,15.3553712 29.0713004,16.0951781 29.0654421,17.0451352 C29.0597339,17.9658004 29.8130601,18.7188262 30.744691,18.7239335 M25.6635322,18.7239335 C26.5960644,18.7230322 27.3478884,17.9767661 27.3484893,17.0515944 C27.3492403,16.123118 26.5992189,15.3657361 25.6770515,15.3631824 C24.7215365,15.3606288 23.9641545,16.1135043 23.9700129,17.059706 C23.975721,17.9877318 24.7261931,18.724985 25.6635322,18.7239335 M20.4183391,18.7237833 C21.356279,18.7198777 22.0974378,17.9835258 22.1025451,17.0502425 C22.1076524,16.1264227 21.3535751,15.3672382 20.4288541,15.3646845 C19.4721373,15.3621309 18.7195622,16.1108004 18.7239185,17.0610579 C18.7279742,17.9839764 19.4856567,18.7273884 20.4183391,18.7237833 M17.4335751,22.2943841 C12.3785536,22.2943841 7.3236824,22.2946845 2.26866094,22.2942339 C0.787094421,22.2940837 -0.000330472103,21.5074099 0.000570815451,20.0344056 C0.001472103,18.0694485 -0.000931330472,16.1043412 0.000871244635,14.1392339 C0.00222317597,12.805779 0.824347639,11.9687833 2.1498412,11.9684828 C12.3594764,11.9660794 22.5691116,11.9660794 32.778897,11.9683326 C34.1446481,11.968633 34.9568584,12.7835472 34.9598627,14.1489979 C34.9639185,16.1283755 34.9607639,18.107603 34.9600129,20.0868305 C34.9595622,21.4841266 34.1574163,22.2937833 32.7694335,22.2939335 C27.6574807,22.2948348 22.5455279,22.2943841 17.4335751,22.2943841" id="Fill-3" fill="#3085D5"></path>
                <g id="Group-7" transform="translate(0.000000, 23.896438)">
                    <mask id="mask-2" fill="white">
                        <use xlink:href="#path-1"></use>
                    </mask>
                    <g id="Clip-6"></g>
                    <path d="M30.7774077,6.79331974 C31.7114421,6.78430687 32.4545536,6.03128112 32.4444893,5.10385622 C32.4342747,4.17267597 31.6823004,3.42956438 30.7547253,3.43422103 C29.8016137,3.43887768 29.0530944,4.19836266 29.0660129,5.1478691 C29.0784807,6.06883476 29.8414206,6.80233262 30.7774077,6.79331974 M25.676721,6.79452146 C26.607,6.7877618 27.3553691,6.03338412 27.3489099,5.10851288 C27.3424506,4.18063734 26.588073,3.43091631 25.6638026,3.43377039 C24.7096395,3.43662446 23.9548112,4.1988133 23.9707339,5.14306223 C23.9865064,6.07394206 24.7378798,6.8011309 25.676721,6.79452146 M20.405691,6.79407082 C21.3452833,6.79587339 22.0870429,6.06913519 22.1016137,5.13314807 C22.1158841,4.21083047 21.3645107,3.44233262 20.4414421,3.43512232 C19.4826223,3.42746137 18.7261416,4.16862017 18.723588,5.11857725 C18.7208841,6.04089485 19.475412,6.79241845 20.405691,6.79407082 M17.4807124,10.3645215 C12.4258412,10.3645215 7.37081974,10.3646717 2.31579828,10.3645215 C0.772193133,10.3643712 -6.00858369e-05,9.59647425 0.000540772532,8.0662382 C0.00129184549,6.11540129 -0.000961373391,4.16456438 0.000841201717,2.21387768 C0.00219313305,0.86254721 0.827171674,0.0383197425 2.18811588,0.0381695279 C12.3550901,0.0365171674 22.5220644,0.0363669528 32.6891888,0.0380193133 C34.1761631,0.0383197425 34.9589313,0.82033691 34.9610343,2.30025107 C34.963588,4.27962876 34.9623863,6.25885622 34.9596824,8.23808369 C34.9577296,9.53969313 34.1286953,10.3633197 32.8165708,10.3637704 C27.704618,10.365573 22.5928155,10.3645215 17.4807124,10.3645215" id="Fill-5" fill="#3085D5" mask="url(#mask-2)"></path>
                </g>
            </g>
        </g>
    </g>
</svg>