<?xml version="1.0" encoding="utf-8"?>
<!-- Generator: Adobe Illustrator 22.0.0, SVG Export Plug-In . SVG Version: 6.00 Build 0)  -->
<svg version="1.1" id="Layer_1" xmlns="http://www.w3.org/2000/svg" xmlns:xlink="http://www.w3.org/1999/xlink" x="0px" y="0px"
	 viewBox="0 0 40 40" style="enable-background:new 0 0 40 40;" xml:space="preserve">
<style type="text/css">
	.st0{fill:#3085D5;}
	.st1{filter:url(#Adobe_OpacityMaskFilter);}
	.st2{fill:#FFFFFF;}
	.st3{mask:url(#mask-2_1_);fill:#3085D5;}
</style>
<title>Group 8</title>
<desc>Created with Sketch.</desc>
<g id="Page-1">
	<g id="ICRIME-FIGHTER-How-to-quatraccent-font" transform="translate(-76.000000, -1707.000000)">
		<g id="Group-8" transform="translate(76.000000, 1707.000000)">
			<path id="Fill-1" class="st0" d="M33.3,9.3c0.9,0,1.7-0.7,1.7-1.7c0-0.9-0.8-1.7-1.7-1.7c-1,0-1.7,0.7-1.7,1.7
				C31.6,8.5,32.3,9.3,33.3,9.3 M28.2,5.9c-0.9,0-1.7,0.7-1.7,1.7c0,0.9,0.8,1.7,1.7,1.7c0.9,0,1.7-0.8,1.7-1.7
				C29.9,6.6,29.1,5.9,28.2,5.9 M22.9,9.3c0.9,0,1.7-0.7,1.7-1.7c0-0.9-0.7-1.7-1.7-1.7c-1,0-1.7,0.7-1.7,1.7
				C21.2,8.5,22,9.3,22.9,9.3 M20,12.8c-5.1,0-10.2,0-15.3,0c-1.4,0-2.2-0.8-2.2-2.3c0-2,0-4,0-5.9c0-1.3,0.8-2.1,2.1-2.1
				c10.2,0,20.4,0,30.7,0c1.3,0,2.1,0.8,2.1,2.2c0,2,0,4,0,6.1c0,1.2-0.8,2.1-2.1,2.1C30.3,12.8,25.1,12.8,20,12.8"/>
			<path id="Fill-3" class="st0" d="M33.3,21.2c0.9,0,1.7-0.7,1.7-1.7c0-0.9-0.7-1.7-1.7-1.7c-1,0-1.7,0.7-1.7,1.7
				C31.6,20.5,32.3,21.2,33.3,21.2 M28.2,21.2c0.9,0,1.7-0.7,1.7-1.7c0-0.9-0.7-1.7-1.7-1.7c-1,0-1.7,0.8-1.7,1.7
				C26.5,20.5,27.2,21.2,28.2,21.2 M22.9,21.2c0.9,0,1.7-0.7,1.7-1.7c0-0.9-0.7-1.7-1.7-1.7c-1,0-1.7,0.7-1.7,1.7
				C21.2,20.5,22,21.2,22.9,21.2 M20,24.8c-5.1,0-10.1,0-15.2,0c-1.5,0-2.3-0.8-2.3-2.3c0-2,0-3.9,0-5.9c0-1.3,0.8-2.2,2.1-2.2
				c10.2,0,20.4,0,30.6,0c1.4,0,2.2,0.8,2.2,2.2c0,2,0,4,0,5.9c0,1.4-0.8,2.2-2.2,2.2C30.2,24.8,25.1,24.8,20,24.8"/>
			<g id="Group-7" transform="translate(0.000000, 23.896438)">
				<g id="Clip-6">
				</g>
				<defs>
					<filter id="Adobe_OpacityMaskFilter" filterUnits="userSpaceOnUse" x="2.5" y="2.5" width="35" height="10.3">
						<feColorMatrix  type="matrix" values="1 0 0 0 0  0 1 0 0 0  0 0 1 0 0  0 0 0 1 0"/>
					</filter>
				</defs>
				<mask maskUnits="userSpaceOnUse" x="2.5" y="2.5" width="35" height="10.3" id="mask-2_1_">
					<g class="st1">
						<polygon id="path-1_1_" class="st2" points="2.5,2.5 37.5,2.5 37.5,12.9 2.5,12.9 						"/>
					</g>
				</mask>
				<path id="Fill-5" class="st3" d="M33.3,9.3c0.9,0,1.7-0.8,1.7-1.7c0-0.9-0.8-1.7-1.7-1.7c-1,0-1.7,0.8-1.7,1.7
					C31.6,8.6,32.4,9.3,33.3,9.3 M28.2,9.3c0.9,0,1.7-0.8,1.7-1.7c0-0.9-0.8-1.7-1.7-1.7c-1,0-1.7,0.8-1.7,1.7
					C26.5,8.6,27.3,9.3,28.2,9.3 M22.9,9.3c0.9,0,1.7-0.7,1.7-1.7c0-0.9-0.7-1.7-1.7-1.7c-1,0-1.7,0.7-1.7,1.7
					C21.2,8.5,22,9.3,22.9,9.3 M20,12.9c-5.1,0-10.1,0-15.2,0c-1.5,0-2.3-0.8-2.3-2.3c0-2,0-3.9,0-5.9c0-1.4,0.8-2.2,2.2-2.2
					c10.2,0,20.3,0,30.5,0c1.5,0,2.3,0.8,2.3,2.3c0,2,0,4,0,5.9c0,1.3-0.8,2.1-2.1,2.1C30.2,12.9,25.1,12.9,20,12.9"/>
			</g>
		</g>
	</g>
</g>
</svg>
