<?xml version="1.0" encoding="UTF-8"?>
<svg width="28px" height="40px" viewBox="0 0 28 40" version="1.1" xmlns="http://www.w3.org/2000/svg" xmlns:xlink="http://www.w3.org/1999/xlink">
    <!-- Generator: Sketch 54 (76480) - https://sketchapp.com -->
    <title>Group 7</title>
    <desc>Created with Sketch.</desc>
    <defs>
        <polygon id="path-1" points="2.2853889e-05 0.0605485273 23.9565564 0.0605485273 23.9565564 30.5263158 2.2853889e-05 30.5263158"></polygon>
        <polygon id="path-3" points="0.00396827586 0.0148166969 13.9830166 0.0148166969 13.9830166 13.6768871 0.00396827586 13.6768871"></polygon>
    </defs>
    <g id="Page-1" stroke="none" stroke-width="1" fill="none" fill-rule="evenodd">
        <g id="ICRIME-FIGHTER-How-to-quatraccent-font" transform="translate(-76.000000, -1638.000000)">
            <g id="Group-7" transform="translate(76.000000, 1638.000000)">
                <g id="Group-3" transform="translate(0.000000, 9.473684)">
                    <mask id="mask-2" fill="white">
                        <use xlink:href="#path-1"></use>
                    </mask>
                    <g id="Clip-2"></g>
                    <path d="M6.87721805,20.8227375 C5.40726316,20.8266583 4.24371429,22.0353884 4.25445113,23.5475146 C4.26473684,24.9977479 5.44344361,26.2173069 6.84356391,26.2266422 C8.3015188,26.2362575 9.47742857,25.025567 9.47995489,23.5123206 C9.48239098,22.0199852 8.32001504,20.81891 6.87721805,20.8227375 M11.9617895,0.0605485273 C15.9696992,2.45495059 19.9564962,4.83675004 23.9565564,7.22639112 C23.882391,7.37528859 23.8322256,7.48703171 23.7729474,7.59336037 C20.1847669,14.0255445 16.6129173,20.467624 12.998391,26.8840315 C11.5211278,29.5064941 9.2304812,30.7731962 6.32386466,30.4865102 C3.32097744,30.1903023 1.28485714,28.4354592 0.338120301,25.4548025 C-0.307082707,23.4229821 -0.00257142857,21.4669641 1.02771429,19.6225025 C3.92070677,14.4434843 6.81081203,9.26259907 9.70227068,4.08264735 C10.3706617,2.88521294 11.0395038,1.68796523 11.7089774,0.491184291 C11.7833233,0.358250121 11.8629925,0.228583293 11.9617895,0.0605485273" id="Fill-1" fill="#3085D5" mask="url(#mask-2)"></path>
                </g>
                <g id="Group-6" transform="translate(14.000000, 0.000000)">
                    <mask id="mask-4" fill="white">
                        <use xlink:href="#path-3"></use>
                    </mask>
                    <g id="Clip-5"></g>
                    <path d="M11.651389,5.62698512 C11.1490303,5.34291978 10.6798855,5.07772922 10.1763683,4.79290889 C9.60323724,5.76477096 9.04555448,6.71068022 8.47483724,7.67857858 C8.98781655,7.96707949 9.45454759,8.22953321 9.94869931,8.50746425 C10.525789,7.53135535 11.0783545,6.59639347 11.651389,5.62698512 M5.51803724,6.00853866 C6.09406483,5.03073103 6.64933379,4.08850236 7.21840966,3.12277459 C6.69355448,2.82813938 6.22865793,2.5670069 5.74464414,2.29530454 C5.16108552,3.28330454 4.60958207,4.21694519 4.04234069,5.17729365 C4.54160966,5.45852777 5.00959586,5.72211397 5.51803724,6.00853866 M0.00396827586,8.67422287 C1.71679586,5.77637895 3.41012,2.91166025 5.12236828,0.0147600726 C8.08766483,1.68819746 11.0165614,3.34106134 13.9830166,5.01515935 C12.2682579,7.9186657 10.5766717,10.7826294 8.86722345,13.6768871 C5.89439586,11.9990142 2.9623131,10.3439797 0.00396827586,8.67422287" id="Fill-4" fill="#3085D5" mask="url(#mask-4)"></path>
                </g>
            </g>
        </g>
    </g>
</svg>