<?xml version="1.0" encoding="utf-8"?>
<!-- Generator: Adobe Illustrator 22.0.0, SVG Export Plug-In . SVG Version: 6.00 Build 0)  -->
<svg version="1.1" id="Layer_1" xmlns="http://www.w3.org/2000/svg" xmlns:xlink="http://www.w3.org/1999/xlink" x="0px" y="0px"
	 viewBox="0 0 40 40" style="enable-background:new 0 0 40 40;" xml:space="preserve">
<style type="text/css">
	.st0{filter:url(#Adobe_OpacityMaskFilter);}
	.st1{fill:#FFFFFF;}
	.st2{mask:url(#mask-2_1_);fill:#3085D5;}
	.st3{filter:url(#Adobe_OpacityMaskFilter_1_);}
	.st4{mask:url(#mask-4_1_);fill:#3085D5;}
</style>
<title>Group 7</title>
<desc>Created with Sketch.</desc>
<g id="Page-1">
	<g id="ICRIME-FIGHTER-How-to-quatraccent-font" transform="translate(-76.000000, -1638.000000)">
		<g id="Group-7" transform="translate(76.000000, 1638.000000)">
			<g id="Group-3" transform="translate(0.000000, 9.473684)">
				<g id="Clip-2">
				</g>
				<defs>
					<filter id="Adobe_OpacityMaskFilter" filterUnits="userSpaceOnUse" x="6" y="0.1" width="24" height="30.5">
						<feColorMatrix  type="matrix" values="1 0 0 0 0  0 1 0 0 0  0 0 1 0 0  0 0 0 1 0"/>
					</filter>
				</defs>
				<mask maskUnits="userSpaceOnUse" x="6" y="0.1" width="24" height="30.5" id="mask-2_1_">
					<g class="st0">
						<polygon id="path-1_1_" class="st1" points="6,0.1 30,0.1 30,30.5 6,30.5 						"/>
					</g>
				</mask>
				<path id="Fill-1" class="st2" d="M12.9,20.8c-1.5,0-2.6,1.2-2.6,2.7c0,1.5,1.2,2.7,2.6,2.7c1.5,0,2.6-1.2,2.6-2.7
					C15.5,22,14.3,20.8,12.9,20.8 M18,0.1c4,2.4,8,4.8,12,7.2c-0.1,0.1-0.1,0.3-0.2,0.4C26.2,14,22.6,20.5,19,26.9
					c-1.5,2.6-3.8,3.9-6.7,3.6c-3-0.3-5-2.1-6-5c-0.6-2-0.3-4,0.7-5.8c2.9-5.2,5.8-10.4,8.7-15.5c0.7-1.2,1.3-2.4,2-3.6
					C17.8,0.4,17.9,0.2,18,0.1"/>
			</g>
			<g id="Group-6" transform="translate(14.000000, 0.000000)">
				<g id="Clip-5">
				</g>
				<defs>
					<filter id="Adobe_OpacityMaskFilter_1_" filterUnits="userSpaceOnUse" x="6" y="0" width="14" height="13.7">
						<feColorMatrix  type="matrix" values="1 0 0 0 0  0 1 0 0 0  0 0 1 0 0  0 0 0 1 0"/>
					</filter>
				</defs>
				<mask maskUnits="userSpaceOnUse" x="6" y="0" width="14" height="13.7" id="mask-4_1_">
					<g class="st3">
						<polygon id="path-3_1_" class="st1" points="6,0 20,0 20,13.7 6,13.7 						"/>
					</g>
				</mask>
				<path id="Fill-4" class="st4" d="M17.7,5.6c-0.5-0.3-1-0.5-1.5-0.8c-0.6,1-1.1,1.9-1.7,2.9C15,8,15.5,8.2,16,8.5
					C16.5,7.5,17.1,6.6,17.7,5.6 M11.5,6c0.6-1,1.1-1.9,1.7-2.9c-0.5-0.3-1-0.6-1.5-0.8c-0.6,1-1.1,1.9-1.7,2.9
					C10.6,5.5,11,5.7,11.5,6 M6,8.7C7.7,5.8,9.4,2.9,11.1,0c3,1.7,5.9,3.3,8.9,5c-1.7,2.9-3.4,5.8-5.1,8.7C11.9,12,9,10.3,6,8.7"/>
			</g>
		</g>
	</g>
</g>
</svg>
