<?xml version="1.0" encoding="UTF-8"?>
<svg width="40px" height="35px" viewBox="0 0 40 35" version="1.1" xmlns="http://www.w3.org/2000/svg" xmlns:xlink="http://www.w3.org/1999/xlink">
    <!-- Generator: sketchtool 54 (76480) - https://sketchapp.com -->
    <title>8E250A8D-A7C2-4E00-A286-83B76B364F3A</title>
    <desc>Created with sketchtool.</desc>
    <g id="Page-1" stroke="none" stroke-width="1" fill="none" fill-rule="evenodd">
        <g id="ICRIME-FIGHTER-How-to-3" transform="translate(-78.000000, -1627.000000)" fill="#3085D5" fill-rule="nonzero">
            <g id="003-video-camera" transform="translate(78.000000, 1627.000000)">
                <path d="M39.7362162,18.0182583 C39.3037838,17.2494895 38.2947748,16.9612012 37.477958,17.4416817 L32.0004805,20.6128529 L30.6070871,21.4296697 L30.6070871,29.0212613 L31.9043844,29.79003 C31.9524324,29.79003 31.9524324,29.8380781 32.0004805,29.8380781 L37.3818619,32.9612012 C37.6221021,33.1533934 37.9584384,33.2494895 38.2947748,33.2494895 C39.2076877,33.2494895 39.9284084,32.5287688 39.9284084,31.6158559 L39.9284084,25.1774174 L39.9764565,18.8350751 C39.9764565,18.5467868 39.9284084,18.2584985 39.7362162,18.0182583 Z" id="Path"></path>
                <path d="M7.73621622,15.5678078 C12.0124925,15.5678078 15.471952,12.1083483 15.471952,7.83207207 C15.471952,3.5557958 12.0124925,0.0963363363 7.73621622,0.0963363363 C3.45993994,0.0963363363 0.00048048048,3.5557958 0.00048048048,7.83207207 C-0.0475675676,12.1083483 3.45993994,15.5678078 7.73621622,15.5678078 Z M7.73621622,4.6609009 C9.51399399,4.6609009 10.9073874,6.10234234 10.9073874,7.83207207 C10.9073874,9.60984985 9.46594595,11.0032432 7.73621622,11.0032432 C6.00648649,11.0032432 4.56504505,9.5618018 4.56504505,7.83207207 C4.516997,6.05429429 5.95843844,4.6609009 7.73621622,4.6609009 Z" id="Shape"></path>
                <path d="M27.3398198,16.0002402 C26.0905706,16.6248649 24.6971772,17.0092492 23.2076877,17.0092492 C21.3818619,17.0092492 19.6521321,16.4807207 18.2106907,15.5197598 L12.7332132,15.5197598 C11.2917718,16.4807207 9.56204204,17.0092492 7.73621622,17.0092492 C6.24672673,17.0092492 4.85333333,16.6729129 3.60408408,16.0002402 C2.49897898,16.6248649 1.73021021,17.8741141 1.73021021,19.2194595 L1.73021021,30.9431832 C1.73021021,33.1053453 3.50798799,34.8350751 5.6221021,34.8350751 L25.3698498,34.8350751 C27.532012,34.8350751 29.2617417,33.0572973 29.2617417,30.9431832 L29.2617417,19.2194595 C29.2136937,17.8741141 28.4449249,16.6248649 27.3398198,16.0002402 Z" id="Path"></path>
                <path d="M23.2076877,15.5678078 C27.483964,15.5678078 30.9434234,12.1083483 30.9434234,7.83207207 C30.9434234,3.5557958 27.483964,0.0963363363 23.2076877,0.0963363363 C18.9314114,0.0963363363 15.471952,3.5557958 15.471952,7.83207207 C15.471952,12.1083483 18.9314114,15.5678078 23.2076877,15.5678078 Z M23.2076877,4.6609009 C24.9854655,4.6609009 26.3788589,6.10234234 26.3788589,7.83207207 C26.3788589,9.60984985 24.9374174,11.0032432 23.2076877,11.0032432 C21.477958,11.0032432 20.0365165,9.5618018 20.0365165,7.83207207 C20.0365165,6.05429429 21.4299099,4.6609009 23.2076877,4.6609009 Z" id="Shape"></path>
            </g>
        </g>
    </g>
</svg>