<?xml version="1.0" encoding="utf-8"?>
<!-- Generator: Adobe Illustrator 22.0.0, SVG Export Plug-In . SVG Version: 6.00 Build 0)  -->
<svg version="1.1" id="Layer_1" xmlns="http://www.w3.org/2000/svg" xmlns:xlink="http://www.w3.org/1999/xlink" x="0px" y="0px"
	 viewBox="0 0 40 40" style="enable-background:new 0 0 40 40;" xml:space="preserve">
<style type="text/css">
	.st0{fill:#3085D5;}
</style>
<title>8E250A8D-A7C2-4E00-A286-83B76B364F3A</title>
<desc>Created with sketchtool.</desc>
<g id="Page-1">
	<g id="ICRIME-FIGHTER-How-to-3" transform="translate(-78.000000, -1627.000000)">
		<g id="_x30_03-video-camera" transform="translate(78.000000, 1627.000000)">
			<path id="Path" class="st0" d="M39.7,20.6c-0.4-0.8-1.4-1.1-2.3-0.6L32,23.1L30.6,24v7.6l1.3,0.8c0,0,0,0,0.1,0l5.4,3.1
				c0.2,0.2,0.6,0.3,0.9,0.3c0.9,0,1.6-0.7,1.6-1.6v-6.4l0-6.3C40,21.1,39.9,20.8,39.7,20.6z"/>
			<path id="Shape" class="st0" d="M7.7,18.1c4.3,0,7.7-3.5,7.7-7.7S12,2.6,7.7,2.6S0,6.1,0,10.4C0,14.6,3.5,18.1,7.7,18.1z
				 M7.7,7.2c1.8,0,3.2,1.4,3.2,3.2c0,1.8-1.4,3.2-3.2,3.2s-3.2-1.4-3.2-3.2C4.5,8.6,6,7.2,7.7,7.2z"/>
			<path id="Path_1_" class="st0" d="M27.4,18.5c-1.2,0.6-2.6,1-4.1,1c-1.8,0-3.6-0.5-5-1.5h-5.5c-1.4,1-3.2,1.5-5,1.5
				c-1.5,0-2.9-0.3-4.1-1c-1.1,0.6-1.9,1.9-1.9,3.2v11.7c0,2.2,1.8,3.9,3.9,3.9h19.7c2.2,0,3.9-1.8,3.9-3.9V21.8
				C29.2,20.4,28.5,19.2,27.4,18.5z"/>
			<path id="Shape_1_" class="st0" d="M23.2,18.1c4.3,0,7.7-3.5,7.7-7.7s-3.5-7.7-7.7-7.7s-7.7,3.5-7.7,7.7S18.9,18.1,23.2,18.1z
				 M23.2,7.2c1.8,0,3.2,1.4,3.2,3.2c0,1.8-1.4,3.2-3.2,3.2c-1.7,0-3.2-1.4-3.2-3.2C20,8.6,21.4,7.2,23.2,7.2z"/>
		</g>
	</g>
</g>
</svg>
